<svg width="131" height="25" viewBox="0 0 131 25" fill="none" xmlns="http://www.w3.org/2000/svg">
<path d="M0.530805 12.1003C0.530805 11.5105 0.630615 10.9343 0.830234 10.3717C1.03893 9.8001 1.33836 9.28291 1.72852 8.82016C2.12776 8.34833 2.61319 7.97631 3.18483 7.7041C3.75647 7.42282 4.40523 7.28218 5.13112 7.28218C5.99311 7.28218 6.73261 7.4818 7.34961 7.88104C7.96662 8.2712 8.42483 8.77479 8.72426 9.39179L7.75792 10.0179C7.56738 9.60956 7.32239 9.28745 7.02296 9.05153C6.73261 8.80655 6.41503 8.63415 6.07023 8.53434C5.73451 8.43453 5.40332 8.38462 5.07668 8.38462C4.54133 8.38462 4.06497 8.49351 3.64758 8.71127C3.23927 8.92904 2.89448 9.21939 2.61319 9.58234C2.33191 9.94528 2.11868 10.3536 1.97351 10.8073C1.8374 11.2519 1.76935 11.701 1.76935 12.1547C1.76935 12.6537 1.85101 13.1346 2.01434 13.5974C2.18674 14.0602 2.42265 14.4685 2.72208 14.8223C3.02151 15.1762 3.37538 15.4575 3.78369 15.6662C4.192 15.8749 4.63661 15.9792 5.11751 15.9792C5.45323 15.9792 5.79803 15.9202 6.1519 15.8023C6.50577 15.6843 6.83695 15.5029 7.14546 15.2579C7.45396 15.0038 7.69894 14.6772 7.88042 14.2779L8.9012 14.8359C8.70158 15.3168 8.39307 15.7252 7.97569 16.0609C7.5583 16.3966 7.09101 16.6507 6.57382 16.8231C6.0657 16.9955 5.56211 17.0817 5.06307 17.0817C4.40069 17.0817 3.79276 16.941 3.23927 16.6597C2.68578 16.3694 2.20488 15.9883 1.79657 15.5165C1.39733 15.0356 1.08429 14.5002 0.857455 13.9104C0.639688 13.3116 0.530805 12.7082 0.530805 12.1003ZM14.7922 17.0681C14.1116 17.0681 13.4946 16.9319 12.9411 16.6597C12.3877 16.3875 11.9068 16.0201 11.4984 15.5573C11.0992 15.0855 10.7907 14.5592 10.5729 13.9785C10.3552 13.3887 10.2463 12.7853 10.2463 12.1683C10.2463 11.5241 10.3597 10.9116 10.5865 10.3309C10.8225 9.74113 11.1446 9.21939 11.5529 8.76571C11.9703 8.30296 12.4557 7.94002 13.0092 7.67688C13.5627 7.40467 14.1661 7.26857 14.8194 7.26857C15.4999 7.26857 16.1169 7.40921 16.6704 7.69049C17.2239 7.97177 17.7002 8.34833 18.0995 8.82016C18.4987 9.29198 18.8072 9.81825 19.025 10.399C19.2428 10.9797 19.3516 11.574 19.3516 12.1819C19.3516 12.8261 19.2382 13.4432 19.0114 14.0329C18.7845 14.6136 18.4624 15.1354 18.045 15.5981C17.6367 16.0518 17.1558 16.4102 16.6023 16.6734C16.0488 16.9365 15.4455 17.0681 14.7922 17.0681ZM11.4848 12.1683C11.4848 12.6583 11.562 13.1346 11.7162 13.5974C11.8795 14.0511 12.1064 14.4549 12.3967 14.8087C12.6871 15.1626 13.0364 15.4439 13.4447 15.6526C13.853 15.8613 14.3067 15.9656 14.8058 15.9656C15.323 15.9656 15.7857 15.8567 16.194 15.639C16.6023 15.4212 16.9471 15.1308 17.2284 14.7679C17.5188 14.405 17.7365 13.9966 17.8817 13.543C18.036 13.0893 18.1131 12.6311 18.1131 12.1683C18.1131 11.6783 18.0314 11.2065 17.8681 10.7528C17.7139 10.2992 17.487 9.89538 17.1876 9.54151C16.8972 9.17856 16.5479 8.89728 16.1396 8.69766C15.7403 8.48897 15.2957 8.38462 14.8058 8.38462C14.2886 8.38462 13.8258 8.49351 13.4175 8.71127C13.0092 8.91996 12.6599 9.20578 12.3695 9.56873C12.0882 9.93167 11.8705 10.34 11.7162 10.7937C11.562 11.2383 11.4848 11.6965 11.4848 12.1683ZM21.598 17V7.33662H24.9461C25.9805 7.33662 26.8425 7.55439 27.5321 7.98992C28.2308 8.41638 28.7525 8.99709 29.0973 9.73205C29.4421 10.4579 29.6145 11.2655 29.6145 12.1547C29.6145 13.1346 29.424 13.9876 29.0429 14.7135C28.6618 15.4393 28.1219 16.0019 27.4232 16.4011C26.7246 16.8004 25.8989 17 24.9461 17H21.598ZM28.376 12.1547C28.376 11.4288 28.2399 10.7846 27.9677 10.222C27.7045 9.65946 27.3189 9.21939 26.8108 8.90182C26.3026 8.58424 25.6811 8.42545 24.9461 8.42545H22.8229V15.9112H24.9461C25.6902 15.9112 26.3163 15.7478 26.8244 15.4212C27.3325 15.0855 27.7181 14.6363 27.9813 14.0738C28.2444 13.5021 28.376 12.8624 28.376 12.1547ZM38.4452 15.9112V17H31.885V7.33662H38.3227V8.42545H33.1099V11.5558H37.6422V12.5766H33.1099V15.9112H38.4452ZM40.3843 13.8288V12.7399H44.3993V13.8288H40.3843ZM52.6452 9.36457C52.5363 9.23754 52.3911 9.11505 52.2097 8.99709C52.0282 8.87913 51.824 8.77479 51.5972 8.68405C51.3704 8.58424 51.1208 8.50712 50.8486 8.45267C50.5855 8.38916 50.3088 8.3574 50.0184 8.3574C49.2744 8.3574 48.7254 8.49804 48.3715 8.77932C48.0177 9.06061 47.8407 9.44623 47.8407 9.93621C47.8407 10.281 47.9315 10.5532 48.1129 10.7528C48.2944 10.9525 48.5712 11.1158 48.9432 11.2428C49.3243 11.3698 49.8052 11.5014 50.3859 11.6375C51.0573 11.7827 51.638 11.9596 52.128 12.1683C52.618 12.377 52.9945 12.6583 53.2577 13.0122C53.5208 13.357 53.6524 13.8197 53.6524 14.4004C53.6524 14.8632 53.5616 15.2669 53.3802 15.6117C53.2078 15.9475 52.9628 16.2287 52.6452 16.4556C52.3276 16.6734 51.9556 16.8367 51.5292 16.9456C51.1027 17.0454 50.6399 17.0953 50.1409 17.0953C49.6509 17.0953 49.17 17.0454 48.6982 16.9456C48.2354 16.8367 47.7954 16.6824 47.378 16.4828C46.9606 16.2832 46.5704 16.0337 46.2075 15.7342L46.7927 14.6998C46.9379 14.8541 47.1239 15.0083 47.3508 15.1626C47.5867 15.3078 47.8498 15.4439 48.1402 15.5709C48.4396 15.6979 48.7617 15.8023 49.1065 15.8839C49.4513 15.9565 49.8052 15.9928 50.1681 15.9928C50.8577 15.9928 51.393 15.8703 51.7741 15.6254C52.1552 15.3713 52.3458 15.0038 52.3458 14.5229C52.3458 14.16 52.2369 13.8696 52.0191 13.6518C51.8104 13.4341 51.4974 13.2526 51.08 13.1074C50.6626 12.9623 50.1545 12.8171 49.5556 12.6719C48.9023 12.5086 48.3534 12.3316 47.9088 12.1411C47.4642 11.9415 47.1285 11.6829 46.9016 11.3653C46.6839 11.0477 46.575 10.6349 46.575 10.1268C46.575 9.50975 46.7247 8.98802 47.0241 8.56156C47.3235 8.1351 47.7364 7.81299 48.2627 7.59522C48.7889 7.37745 49.3832 7.26857 50.0456 7.26857C50.4812 7.26857 50.8849 7.31394 51.2569 7.40467C51.638 7.49541 51.9919 7.62244 52.3186 7.78577C52.6452 7.94909 52.9446 8.14417 53.2168 8.37101L52.6452 9.36457ZM55.8079 17V7.33662H57.0328V17H55.8079ZM66.8564 8.42545H63.5218V17H62.2969V8.42545H58.9623V7.33662H66.8564V8.42545ZM75.3528 15.9112V17H68.7925V7.33662H75.2303V8.42545H70.0175V11.5558H74.5497V12.5766H70.0175V15.9112H75.3528ZM77.2918 17V15.4756H78.299V17H77.2918ZM83.8132 7.33662H84.8476L88.7946 17H87.488L86.3447 14.169H82.2888L81.1592 17H79.8526L83.8132 7.33662ZM86.0725 13.2163L84.3304 8.7521L82.5338 13.2163H86.0725ZM90.6287 17V7.33662H94.7663C95.1927 7.33662 95.5829 7.42736 95.9368 7.60883C96.2906 7.78123 96.5991 8.01714 96.8623 8.31657C97.1254 8.60693 97.3296 8.93811 97.4747 9.31013C97.6199 9.67307 97.6925 10.0451 97.6925 10.4262C97.6925 10.8708 97.6063 11.2927 97.4339 11.6919C97.2706 12.0912 97.0347 12.4314 96.7262 12.7127C96.4267 12.994 96.0729 13.1891 95.6646 13.298L98.0055 17H96.6173L94.4124 13.5294H91.8537V17H90.6287ZM91.8537 12.4405H94.7799C95.1156 12.4405 95.406 12.3498 95.6509 12.1683C95.905 11.9778 96.1001 11.7282 96.2362 11.4197C96.3814 11.1112 96.454 10.7801 96.454 10.4262C96.454 10.0632 96.3723 9.73205 96.209 9.43262C96.0457 9.12412 95.8324 8.87913 95.5693 8.69766C95.3062 8.51619 95.0158 8.42545 94.6982 8.42545H91.8537V12.4405ZM107.007 8.42545H103.672V17H102.448V8.42545H99.113V7.33662H107.007V8.42545Z" fill="white"/>
<path d="M120.689 18.3343L124.195 5.30908H125.329L121.462 18.3343H120.689Z" fill="white"/>
<path d="M126.385 17.7552V16.3932L130.227 13.5577L126.36 10.7222L126.385 9.50586L131 12.7702V14.4907L126.385 17.7552Z" fill="white"/>
<path d="M118.602 17.683V16.3209L114.76 13.4854L118.627 10.65L118.602 9.43359L113.987 12.6979V14.4185L118.602 17.683Z" fill="white"/>
<path d="M126.526 6.37399C125.987 6.91321 124.01 7.2727 124.01 7.2727C124.01 7.2727 123.111 5.11579 123.291 4.39682C123.47 3.67785 124.01 3.13862 124.01 3.13862C124.932 2.16369 125.665 1.94628 127.065 1.70068C127.327 3.56953 127.065 5.83476 126.526 6.37399Z" fill="white"/>
</svg>
