<svg width="21" height="20" viewBox="0 0 21 20" fill="none" xmlns="http://www.w3.org/2000/svg">
<path d="M9.33703 0.691213C9.63638 -0.230098 10.9398 -0.2301 11.2391 0.691211L12.9823 6.05595C13.1161 6.46798 13.5001 6.74694 13.9333 6.74694H19.5741C20.5429 6.74694 20.9456 7.98655 20.1619 8.55596L15.5984 11.8716C15.2479 12.1262 15.1013 12.5776 15.2351 12.9896L16.9782 18.3543C17.2776 19.2756 16.2231 20.0418 15.4394 19.4724L10.8759 16.1568C10.5254 15.9021 10.0508 15.9021 9.7003 16.1568L5.13678 19.4724C4.35306 20.0418 3.29858 19.2756 3.59793 18.3543L5.34105 12.9896C5.47492 12.5776 5.32826 12.1262 4.97777 11.8716L0.414251 8.55596C-0.369463 7.98656 0.0333114 6.74694 1.00203 6.74694H6.64286C7.07609 6.74694 7.46004 6.46798 7.59392 6.05596L9.33703 0.691213Z" fill="#C47731"/>
</svg>
